REM DIRINDEX 1\2,1\3,1\4,1\5
REM DIRNAME folder01,folder02,folder03,folder04,folder05
TITLE ""
FILE "1Q_t_0423-0432.mp3" MP3
  TRACK 01 AUDIO
    TITLE "3:cjc004_2170"
    INDEX 01 00:00:00
  TRACK 02 AUDIO
    TITLE "0:"
    INDEX 01 00:01:13
  TRACK 03 AUDIO
    TITLE "4:cjc004_2171"
    INDEX 01 00:01:36
  TRACK 04 AUDIO
    TITLE "0:"
    INDEX 01 00:02:40
  TRACK 05 AUDIO
    TITLE "5:cjc004_2172"
    INDEX 01 00:02:67
  TRACK 06 AUDIO
    TITLE "0:"
    INDEX 01 00:07:72
  TRACK 07 AUDIO
    TITLE "3:cjc004_2173"
    INDEX 01 00:08:52
  TRACK 08 AUDIO
    TITLE "0:"
    INDEX 01 00:09:53
  TRACK 09 AUDIO
    TITLE "4:cjc004_2174"
    INDEX 01 00:10:02
  TRACK 10 AUDIO
    TITLE "0:"
    INDEX 01 00:11:29
  TRACK 11 AUDIO
    TITLE "5:cjc004_2175"
    INDEX 01 00:11:60
  TRACK 12 AUDIO
    TITLE "0:"
    INDEX 01 00:16:57
  TRACK 13 AUDIO
    TITLE "3:cjc004_2176"
    INDEX 01 00:17:33
  TRACK 14 AUDIO
    TITLE "0:"
    INDEX 01 00:18:39
  TRACK 15 AUDIO
    TITLE "4:cjc004_2177"
    INDEX 01 00:18:70
  TRACK 16 AUDIO
    TITLE "0:"
    INDEX 01 00:20:06
  TRACK 17 AUDIO
    TITLE "5:cjc004_2178"
    INDEX 01 00:20:34
  TRACK 18 AUDIO
    TITLE "0:"
    INDEX 01 00:24:57
  TRACK 19 AUDIO
    TITLE "3:cjc004_2179"
    INDEX 01 00:25:37
  TRACK 20 AUDIO
    TITLE "0:"
    INDEX 01 00:26:28
  TRACK 21 AUDIO
    TITLE "4:cjc004_2180"
    INDEX 01 00:26:58
  TRACK 22 AUDIO
    TITLE "0:"
    INDEX 01 00:27:65
  TRACK 23 AUDIO
    TITLE "5:cjc004_2181"
    INDEX 01 00:28:15
  TRACK 24 AUDIO
    TITLE "0:"
    INDEX 01 00:32:64
  TRACK 25 AUDIO
    TITLE "3:cjc004_2182"
    INDEX 01 00:33:48
  TRACK 26 AUDIO
    TITLE "0:"
    INDEX 01 00:34:61
  TRACK 27 AUDIO
    TITLE "4:cjc004_2183"
    INDEX 01 00:35:17
  TRACK 28 AUDIO
    TITLE "0:"
    INDEX 01 00:36:31
  TRACK 29 AUDIO
    TITLE "5:cjc004_2184"
    INDEX 01 00:36:62
  TRACK 30 AUDIO
    TITLE "0:"
    INDEX 01 00:41:18
  TRACK 31 AUDIO
    TITLE "3:cjc004_2185"
    INDEX 01 00:42:06
  TRACK 32 AUDIO
    TITLE "0:"
    INDEX 01 00:43:19
  TRACK 33 AUDIO
    TITLE "4:cjc004_2186"
    INDEX 01 00:43:48
  TRACK 34 AUDIO
    TITLE "0:"
    INDEX 01 00:45:20
  TRACK 35 AUDIO
    TITLE "5:cjc004_2187"
    INDEX 01 00:45:49
  TRACK 36 AUDIO
    TITLE "0:"
    INDEX 01 00:51:16
  TRACK 37 AUDIO
    TITLE "3:cjc004_2188"
    INDEX 01 00:51:65
  TRACK 38 AUDIO
    TITLE "0:"
    INDEX 01 00:53:08
  TRACK 39 AUDIO
    TITLE "4:cjc004_2189"
    INDEX 01 00:53:35
  TRACK 40 AUDIO
    TITLE "0:"
    INDEX 01 00:54:64
  TRACK 41 AUDIO
    TITLE "5:cjc004_2190"
    INDEX 01 00:55:16
  TRACK 42 AUDIO
    TITLE "0:"
    INDEX 01 00:59:43
  TRACK 43 AUDIO
    TITLE "3:cjc004_2191"
    INDEX 01 01:00:23
  TRACK 44 AUDIO
    TITLE "0:"
    INDEX 01 01:01:34
  TRACK 45 AUDIO
    TITLE "4:cjc004_2192"
    INDEX 01 01:01:60
  TRACK 46 AUDIO
    TITLE "0:"
    INDEX 01 01:02:65
  TRACK 47 AUDIO
    TITLE "5:cjc004_2193"
    INDEX 01 01:03:14
  TRACK 48 AUDIO
    TITLE "0:"
    INDEX 01 01:07:68
  TRACK 49 AUDIO
    TITLE "3:cjc004_2194"
    INDEX 01 01:08:46
  TRACK 50 AUDIO
    TITLE "0:"
    INDEX 01 01:09:69
  TRACK 51 AUDIO
    TITLE "4:cjc004_2195"
    INDEX 01 01:10:22
  TRACK 52 AUDIO
    TITLE "0:"
    INDEX 01 01:11:62
  TRACK 53 AUDIO
    TITLE "5:cjc004_2196"
    INDEX 01 01:12:15
  TRACK 54 AUDIO
    TITLE "0:"
    INDEX 01 01:17:65
  TRACK 55 AUDIO
    TITLE "3:cjc004_2197"
    INDEX 01 01:18:39
  TRACK 56 AUDIO
    TITLE "0:"
    INDEX 01 01:19:34
  TRACK 57 AUDIO
    TITLE "4:cjc004_2198"
    INDEX 01 01:19:68
  TRACK 58 AUDIO
    TITLE "0:"
    INDEX 01 01:21:08
  TRACK 59 AUDIO
    TITLE "5:cjc004_2199"
    INDEX 01 01:21:35
  TRACK 60 AUDIO
    TITLE "0:"
    INDEX 01 01:25:60
